<mxfile host="app.diagrams.net" modified="2022-09-02T08:02:21.333Z" agent="5.0 (Windows NT 10.0; Win64; x64) AppleWebKit/537.36 (KHTML, like Gecko) Chrome/104.0.5112.102 Safari/537.36 OPR/90.0.4480.54 (Edition Yx 05)" etag="9wnagK25yv7AWOr-zWbU" version="20.2.8" type="github">
  <diagram id="9wx6JyTRQ3IxCqDkxweB" name="Страница 1">
    <mxGraphModel dx="2084" dy="780" grid="1" gridSize="10" guides="1" tooltips="1" connect="1" arrows="1" fold="1" page="1" pageScale="1" pageWidth="827" pageHeight="1169" math="0" shadow="0">
      <root>
        <mxCell id="0" />
        <mxCell id="1" parent="0" />
        <mxCell id="8dp724j7B6rKjIRby_pD-3" value="Бронирование" style="rounded=1;whiteSpace=wrap;html=1;" parent="1" vertex="1">
          <mxGeometry x="414" y="330" width="120" height="60" as="geometry" />
        </mxCell>
        <mxCell id="8dp724j7B6rKjIRby_pD-5" value="Билет" style="rounded=1;whiteSpace=wrap;html=1;" parent="1" vertex="1">
          <mxGeometry x="414" y="600" width="120" height="60" as="geometry" />
        </mxCell>
        <mxCell id="8dp724j7B6rKjIRby_pD-9" style="edgeStyle=orthogonalEdgeStyle;rounded=0;orthogonalLoop=1;jettySize=auto;html=1;exitX=0.5;exitY=1;exitDx=0;exitDy=0;entryX=0.5;entryY=0;entryDx=0;entryDy=0;" parent="1" source="8dp724j7B6rKjIRby_pD-7" target="8dp724j7B6rKjIRby_pD-3" edge="1">
          <mxGeometry relative="1" as="geometry" />
        </mxCell>
        <mxCell id="8dp724j7B6rKjIRby_pD-7" value="Дата&amp;nbsp;" style="ellipse;whiteSpace=wrap;html=1;" parent="1" vertex="1">
          <mxGeometry x="414" y="190" width="120" height="80" as="geometry" />
        </mxCell>
        <mxCell id="8dp724j7B6rKjIRby_pD-10" style="edgeStyle=orthogonalEdgeStyle;rounded=0;orthogonalLoop=1;jettySize=auto;html=1;exitX=0;exitY=0.5;exitDx=0;exitDy=0;entryX=1;entryY=0.5;entryDx=0;entryDy=0;" parent="1" source="8dp724j7B6rKjIRby_pD-8" target="8dp724j7B6rKjIRby_pD-3" edge="1">
          <mxGeometry relative="1" as="geometry" />
        </mxCell>
        <mxCell id="8dp724j7B6rKjIRby_pD-8" value="Стоимость" style="ellipse;whiteSpace=wrap;html=1;" parent="1" vertex="1">
          <mxGeometry x="600" y="320" width="120" height="80" as="geometry" />
        </mxCell>
        <mxCell id="8dp724j7B6rKjIRby_pD-19" style="edgeStyle=orthogonalEdgeStyle;rounded=0;orthogonalLoop=1;jettySize=auto;html=1;entryX=1;entryY=0.5;entryDx=0;entryDy=0;" parent="1" source="8dp724j7B6rKjIRby_pD-12" target="8dp724j7B6rKjIRby_pD-5" edge="1">
          <mxGeometry relative="1" as="geometry" />
        </mxCell>
        <mxCell id="8dp724j7B6rKjIRby_pD-12" value="Номер документа" style="ellipse;whiteSpace=wrap;html=1;" parent="1" vertex="1">
          <mxGeometry x="640" y="590" width="120" height="80" as="geometry" />
        </mxCell>
        <mxCell id="8dp724j7B6rKjIRby_pD-17" style="edgeStyle=orthogonalEdgeStyle;rounded=0;orthogonalLoop=1;jettySize=auto;html=1;entryX=0;entryY=0.5;entryDx=0;entryDy=0;" parent="1" source="8dp724j7B6rKjIRby_pD-16" target="8dp724j7B6rKjIRby_pD-3" edge="1">
          <mxGeometry relative="1" as="geometry" />
        </mxCell>
        <mxCell id="8dp724j7B6rKjIRby_pD-16" value="Уникальный номер бронирования" style="ellipse;whiteSpace=wrap;html=1;" parent="1" vertex="1">
          <mxGeometry x="230" y="320" width="120" height="80" as="geometry" />
        </mxCell>
        <mxCell id="8dp724j7B6rKjIRby_pD-23" value="Рейс" style="rounded=1;whiteSpace=wrap;html=1;" parent="1" vertex="1">
          <mxGeometry x="60" y="600" width="120" height="60" as="geometry" />
        </mxCell>
        <mxCell id="8dp724j7B6rKjIRby_pD-26" style="edgeStyle=orthogonalEdgeStyle;rounded=0;orthogonalLoop=1;jettySize=auto;html=1;entryX=0;entryY=0;entryDx=0;entryDy=0;" parent="1" source="8dp724j7B6rKjIRby_pD-25" target="8dp724j7B6rKjIRby_pD-23" edge="1">
          <mxGeometry relative="1" as="geometry" />
        </mxCell>
        <mxCell id="8dp724j7B6rKjIRby_pD-25" value="Номер&amp;nbsp;" style="ellipse;whiteSpace=wrap;html=1;" parent="1" vertex="1">
          <mxGeometry y="430" width="120" height="80" as="geometry" />
        </mxCell>
        <mxCell id="8dp724j7B6rKjIRby_pD-28" style="edgeStyle=orthogonalEdgeStyle;rounded=0;orthogonalLoop=1;jettySize=auto;html=1;entryX=0;entryY=1;entryDx=0;entryDy=0;" parent="1" source="8dp724j7B6rKjIRby_pD-27" target="8dp724j7B6rKjIRby_pD-23" edge="1">
          <mxGeometry relative="1" as="geometry" />
        </mxCell>
        <mxCell id="8dp724j7B6rKjIRby_pD-27" value="Дата вылета" style="ellipse;whiteSpace=wrap;html=1;" parent="1" vertex="1">
          <mxGeometry y="750" width="120" height="80" as="geometry" />
        </mxCell>
        <mxCell id="8dp724j7B6rKjIRby_pD-32" style="edgeStyle=orthogonalEdgeStyle;rounded=0;orthogonalLoop=1;jettySize=auto;html=1;entryX=0.5;entryY=0;entryDx=0;entryDy=0;" parent="1" source="8dp724j7B6rKjIRby_pD-31" target="eQU85CLvtmhbO05ulc1L-20" edge="1">
          <mxGeometry relative="1" as="geometry" />
        </mxCell>
        <mxCell id="8dp724j7B6rKjIRby_pD-31" value="Количество мест" style="ellipse;whiteSpace=wrap;html=1;" parent="1" vertex="1">
          <mxGeometry x="-400" y="490" width="120" height="80" as="geometry" />
        </mxCell>
        <mxCell id="8dp724j7B6rKjIRby_pD-33" value="" style="rhombus;whiteSpace=wrap;html=1;" parent="1" vertex="1">
          <mxGeometry x="434" y="460" width="80" height="80" as="geometry" />
        </mxCell>
        <mxCell id="8dp724j7B6rKjIRby_pD-34" value="1" style="endArrow=none;html=1;rounded=0;entryX=0.5;entryY=1;entryDx=0;entryDy=0;exitX=0.5;exitY=0;exitDx=0;exitDy=0;" parent="1" source="8dp724j7B6rKjIRby_pD-33" target="8dp724j7B6rKjIRby_pD-3" edge="1">
          <mxGeometry width="50" height="50" relative="1" as="geometry">
            <mxPoint x="350" y="490" as="sourcePoint" />
            <mxPoint x="400" y="440" as="targetPoint" />
          </mxGeometry>
        </mxCell>
        <mxCell id="8dp724j7B6rKjIRby_pD-35" value="м" style="endArrow=none;html=1;rounded=0;entryX=0.5;entryY=1;entryDx=0;entryDy=0;exitX=0.5;exitY=0;exitDx=0;exitDy=0;" parent="1" source="8dp724j7B6rKjIRby_pD-5" target="8dp724j7B6rKjIRby_pD-33" edge="1">
          <mxGeometry width="50" height="50" relative="1" as="geometry">
            <mxPoint x="270" y="590" as="sourcePoint" />
            <mxPoint x="320" y="540" as="targetPoint" />
          </mxGeometry>
        </mxCell>
        <mxCell id="8dp724j7B6rKjIRby_pD-36" value="" style="rhombus;whiteSpace=wrap;html=1;" parent="1" vertex="1">
          <mxGeometry x="260" y="590" width="80" height="80" as="geometry" />
        </mxCell>
        <mxCell id="8dp724j7B6rKjIRby_pD-37" value="м" style="endArrow=none;html=1;rounded=0;entryX=0;entryY=0.5;entryDx=0;entryDy=0;exitX=1;exitY=0.5;exitDx=0;exitDy=0;" parent="1" source="8dp724j7B6rKjIRby_pD-23" target="8dp724j7B6rKjIRby_pD-36" edge="1">
          <mxGeometry width="50" height="50" relative="1" as="geometry">
            <mxPoint x="110" y="770" as="sourcePoint" />
            <mxPoint x="160" y="720" as="targetPoint" />
          </mxGeometry>
        </mxCell>
        <mxCell id="8dp724j7B6rKjIRby_pD-38" value="м" style="endArrow=none;html=1;rounded=0;entryX=0;entryY=0.5;entryDx=0;entryDy=0;exitX=1;exitY=0.5;exitDx=0;exitDy=0;" parent="1" source="8dp724j7B6rKjIRby_pD-36" target="8dp724j7B6rKjIRby_pD-5" edge="1">
          <mxGeometry width="50" height="50" relative="1" as="geometry">
            <mxPoint x="340" y="720" as="sourcePoint" />
            <mxPoint x="390" y="670" as="targetPoint" />
          </mxGeometry>
        </mxCell>
        <mxCell id="8dp724j7B6rKjIRby_pD-39" value="Аэропорт вылета" style="rhombus;whiteSpace=wrap;html=1;" parent="1" vertex="1">
          <mxGeometry x="-130" y="520" width="80" height="80" as="geometry" />
        </mxCell>
        <mxCell id="eQU85CLvtmhbO05ulc1L-1" value="Аэропорт прилета" style="rhombus;whiteSpace=wrap;html=1;" vertex="1" parent="1">
          <mxGeometry x="-130" y="670" width="80" height="80" as="geometry" />
        </mxCell>
        <mxCell id="eQU85CLvtmhbO05ulc1L-3" value="" style="endArrow=none;html=1;rounded=0;" edge="1" parent="1">
          <mxGeometry width="50" height="50" relative="1" as="geometry">
            <mxPoint x="-180" y="630" as="sourcePoint" />
            <mxPoint x="-180" y="560" as="targetPoint" />
          </mxGeometry>
        </mxCell>
        <mxCell id="eQU85CLvtmhbO05ulc1L-4" value="" style="endArrow=none;html=1;rounded=0;entryX=0;entryY=0.5;entryDx=0;entryDy=0;" edge="1" parent="1" target="8dp724j7B6rKjIRby_pD-39">
          <mxGeometry width="50" height="50" relative="1" as="geometry">
            <mxPoint x="-180" y="560" as="sourcePoint" />
            <mxPoint x="-150" y="480" as="targetPoint" />
          </mxGeometry>
        </mxCell>
        <mxCell id="eQU85CLvtmhbO05ulc1L-5" value="" style="endArrow=none;html=1;rounded=0;" edge="1" parent="1">
          <mxGeometry width="50" height="50" relative="1" as="geometry">
            <mxPoint x="-180" y="710" as="sourcePoint" />
            <mxPoint x="-180" y="630" as="targetPoint" />
          </mxGeometry>
        </mxCell>
        <mxCell id="eQU85CLvtmhbO05ulc1L-6" value="" style="endArrow=none;html=1;rounded=0;entryX=0;entryY=0.5;entryDx=0;entryDy=0;" edge="1" parent="1" target="eQU85CLvtmhbO05ulc1L-1">
          <mxGeometry width="50" height="50" relative="1" as="geometry">
            <mxPoint x="-180" y="710" as="sourcePoint" />
            <mxPoint x="-170" y="750" as="targetPoint" />
          </mxGeometry>
        </mxCell>
        <mxCell id="eQU85CLvtmhbO05ulc1L-8" value="" style="endArrow=none;html=1;rounded=0;" edge="1" parent="1">
          <mxGeometry width="50" height="50" relative="1" as="geometry">
            <mxPoint x="-10" y="630" as="sourcePoint" />
            <mxPoint x="-10" y="560" as="targetPoint" />
          </mxGeometry>
        </mxCell>
        <mxCell id="eQU85CLvtmhbO05ulc1L-10" value="" style="endArrow=none;html=1;rounded=0;" edge="1" parent="1">
          <mxGeometry width="50" height="50" relative="1" as="geometry">
            <mxPoint x="-10" y="710" as="sourcePoint" />
            <mxPoint x="-10" y="630" as="targetPoint" />
          </mxGeometry>
        </mxCell>
        <mxCell id="eQU85CLvtmhbO05ulc1L-11" value="" style="endArrow=none;html=1;rounded=0;" edge="1" parent="1">
          <mxGeometry width="50" height="50" relative="1" as="geometry">
            <mxPoint x="-50" y="709.29" as="sourcePoint" />
            <mxPoint x="-10" y="709" as="targetPoint" />
          </mxGeometry>
        </mxCell>
        <mxCell id="eQU85CLvtmhbO05ulc1L-12" value="м" style="endArrow=none;html=1;rounded=0;entryX=1;entryY=0.5;entryDx=0;entryDy=0;" edge="1" parent="1">
          <mxGeometry width="50" height="50" relative="1" as="geometry">
            <mxPoint x="60" y="629.29" as="sourcePoint" />
            <mxPoint x="-10" y="629.29" as="targetPoint" />
          </mxGeometry>
        </mxCell>
        <mxCell id="eQU85CLvtmhbO05ulc1L-13" value="" style="endArrow=none;html=1;rounded=0;exitX=1;exitY=0.5;exitDx=0;exitDy=0;" edge="1" parent="1" source="8dp724j7B6rKjIRby_pD-39">
          <mxGeometry width="50" height="50" relative="1" as="geometry">
            <mxPoint x="-160" y="500" as="sourcePoint" />
            <mxPoint x="-10" y="560" as="targetPoint" />
          </mxGeometry>
        </mxCell>
        <mxCell id="eQU85CLvtmhbO05ulc1L-17" style="edgeStyle=none;rounded=0;orthogonalLoop=1;jettySize=auto;html=1;entryX=0.5;entryY=1;entryDx=0;entryDy=0;" edge="1" parent="1" source="eQU85CLvtmhbO05ulc1L-16" target="eQU85CLvtmhbO05ulc1L-20">
          <mxGeometry relative="1" as="geometry" />
        </mxCell>
        <mxCell id="eQU85CLvtmhbO05ulc1L-16" value="Модель" style="ellipse;whiteSpace=wrap;html=1;" vertex="1" parent="1">
          <mxGeometry x="-400" y="720" width="120" height="80" as="geometry" />
        </mxCell>
        <mxCell id="eQU85CLvtmhbO05ulc1L-18" value="Номер места" style="ellipse;whiteSpace=wrap;html=1;" vertex="1" parent="1">
          <mxGeometry x="414" y="740" width="120" height="80" as="geometry" />
        </mxCell>
        <mxCell id="eQU85CLvtmhbO05ulc1L-19" value="" style="endArrow=none;html=1;rounded=0;entryX=0.5;entryY=1;entryDx=0;entryDy=0;exitX=0.5;exitY=0;exitDx=0;exitDy=0;" edge="1" parent="1" source="eQU85CLvtmhbO05ulc1L-18" target="8dp724j7B6rKjIRby_pD-5">
          <mxGeometry width="50" height="50" relative="1" as="geometry">
            <mxPoint x="300" y="740" as="sourcePoint" />
            <mxPoint x="350" y="690" as="targetPoint" />
          </mxGeometry>
        </mxCell>
        <mxCell id="eQU85CLvtmhbO05ulc1L-20" value="Самолет" style="rounded=1;whiteSpace=wrap;html=1;" vertex="1" parent="1">
          <mxGeometry x="-400" y="610" width="120" height="60" as="geometry" />
        </mxCell>
        <mxCell id="eQU85CLvtmhbO05ulc1L-23" style="edgeStyle=none;rounded=0;orthogonalLoop=1;jettySize=auto;html=1;entryX=0.5;entryY=0;entryDx=0;entryDy=0;" edge="1" parent="1" source="eQU85CLvtmhbO05ulc1L-22" target="8dp724j7B6rKjIRby_pD-39">
          <mxGeometry relative="1" as="geometry" />
        </mxCell>
        <mxCell id="eQU85CLvtmhbO05ulc1L-22" value="Трехбуквенный код" style="ellipse;whiteSpace=wrap;html=1;" vertex="1" parent="1">
          <mxGeometry x="-150" y="400" width="120" height="80" as="geometry" />
        </mxCell>
        <mxCell id="eQU85CLvtmhbO05ulc1L-28" style="edgeStyle=none;rounded=0;orthogonalLoop=1;jettySize=auto;html=1;entryX=0.5;entryY=1;entryDx=0;entryDy=0;" edge="1" parent="1" source="eQU85CLvtmhbO05ulc1L-27" target="eQU85CLvtmhbO05ulc1L-1">
          <mxGeometry relative="1" as="geometry" />
        </mxCell>
        <mxCell id="eQU85CLvtmhbO05ulc1L-27" value="" style="ellipse;whiteSpace=wrap;html=1;" vertex="1" parent="1">
          <mxGeometry x="-150" y="820" width="120" height="80" as="geometry" />
        </mxCell>
        <mxCell id="eQU85CLvtmhbO05ulc1L-30" value="1" style="endArrow=none;html=1;rounded=0;exitX=1;exitY=0.5;exitDx=0;exitDy=0;" edge="1" parent="1" source="eQU85CLvtmhbO05ulc1L-20">
          <mxGeometry width="50" height="50" relative="1" as="geometry">
            <mxPoint x="-520" y="760" as="sourcePoint" />
            <mxPoint x="-180" y="640" as="targetPoint" />
          </mxGeometry>
        </mxCell>
      </root>
    </mxGraphModel>
  </diagram>
</mxfile>
